<mxfile host="app.diagrams.net" modified="2023-09-27T23:04:44.043Z" agent="Mozilla/5.0 (Windows NT 10.0; Win64; x64) AppleWebKit/537.36 (KHTML, like Gecko) Chrome/116.0.0.0 Safari/537.36" etag="kI0DqctrGNIWYjQx978Z" version="21.8.2" type="github">
  <diagram name="Página-1" id="eGpYJWWkuo7umhn2AkbN">
    <mxGraphModel dx="5434" dy="2453" grid="1" gridSize="10" guides="1" tooltips="1" connect="1" arrows="1" fold="1" page="1" pageScale="1" pageWidth="2000" pageHeight="1600" math="0" shadow="0">
      <root>
        <mxCell id="0" />
        <mxCell id="1" parent="0" />
        <mxCell id="YnD6Rocj099rIB_h3GZ2-55" value="Caso de teste" style="shape=table;startSize=30;container=1;collapsible=0;childLayout=tableLayout;fixedRows=1;rowLines=0;fontStyle=0;strokeColor=default;fontSize=16;fontFamily=Helvetica;fontColor=default;fillColor=none;html=1;movable=0;resizable=0;rotatable=0;deletable=0;editable=0;locked=1;connectable=0;" parent="1" vertex="1">
          <mxGeometry x="-3990" y="-1590" width="460" height="630" as="geometry" />
        </mxCell>
        <mxCell id="YnD6Rocj099rIB_h3GZ2-75" style="shape=tableRow;horizontal=0;startSize=0;swimlaneHead=0;swimlaneBody=0;top=0;left=0;bottom=0;right=0;collapsible=0;dropTarget=0;fillColor=none;points=[[0,0.5],[1,0.5]];portConstraint=eastwest;strokeColor=inherit;fontSize=16;fontFamily=Helvetica;fontColor=default;html=1;movable=0;resizable=0;rotatable=0;deletable=0;editable=0;locked=1;connectable=0;" parent="YnD6Rocj099rIB_h3GZ2-55" vertex="1">
          <mxGeometry y="30" width="460" height="60" as="geometry" />
        </mxCell>
        <mxCell id="YnD6Rocj099rIB_h3GZ2-76" value="Nome" style="shape=partialRectangle;html=1;whiteSpace=wrap;connectable=0;fillColor=none;top=0;left=0;bottom=0;right=0;overflow=hidden;pointerEvents=1;strokeColor=inherit;fontSize=16;fontFamily=Helvetica;fontColor=default;startSize=30;verticalAlign=top;movable=0;resizable=0;rotatable=0;deletable=0;editable=0;locked=1;" parent="YnD6Rocj099rIB_h3GZ2-75" vertex="1">
          <mxGeometry width="131" height="60" as="geometry">
            <mxRectangle width="131" height="60" as="alternateBounds" />
          </mxGeometry>
        </mxCell>
        <mxCell id="YnD6Rocj099rIB_h3GZ2-77" value="Cadastrar pão" style="shape=partialRectangle;html=1;whiteSpace=wrap;connectable=0;fillColor=none;top=0;left=0;bottom=0;right=0;align=left;spacingLeft=6;overflow=hidden;strokeColor=inherit;fontSize=16;fontFamily=Helvetica;fontColor=default;startSize=30;verticalAlign=top;movable=0;resizable=0;rotatable=0;deletable=0;editable=0;locked=1;" parent="YnD6Rocj099rIB_h3GZ2-75" vertex="1">
          <mxGeometry x="131" width="329" height="60" as="geometry">
            <mxRectangle width="329" height="60" as="alternateBounds" />
          </mxGeometry>
        </mxCell>
        <mxCell id="YnD6Rocj099rIB_h3GZ2-71" style="shape=tableRow;horizontal=0;startSize=0;swimlaneHead=0;swimlaneBody=0;top=0;left=0;bottom=0;right=0;collapsible=0;dropTarget=0;fillColor=none;points=[[0,0.5],[1,0.5]];portConstraint=eastwest;strokeColor=inherit;fontSize=16;fontFamily=Helvetica;fontColor=default;html=1;movable=0;resizable=0;rotatable=0;deletable=0;editable=0;locked=1;connectable=0;" parent="YnD6Rocj099rIB_h3GZ2-55" vertex="1">
          <mxGeometry y="90" width="460" height="70" as="geometry" />
        </mxCell>
        <mxCell id="YnD6Rocj099rIB_h3GZ2-72" value="Ator" style="shape=partialRectangle;html=1;whiteSpace=wrap;connectable=0;fillColor=none;top=0;left=0;bottom=0;right=0;overflow=hidden;pointerEvents=1;strokeColor=inherit;fontSize=16;fontFamily=Helvetica;fontColor=default;startSize=30;verticalAlign=top;movable=0;resizable=0;rotatable=0;deletable=0;editable=0;locked=1;" parent="YnD6Rocj099rIB_h3GZ2-71" vertex="1">
          <mxGeometry width="131" height="70" as="geometry">
            <mxRectangle width="131" height="70" as="alternateBounds" />
          </mxGeometry>
        </mxCell>
        <mxCell id="YnD6Rocj099rIB_h3GZ2-73" value="Funcionário" style="shape=partialRectangle;html=1;whiteSpace=wrap;connectable=0;fillColor=none;top=0;left=0;bottom=0;right=0;align=left;spacingLeft=6;overflow=hidden;strokeColor=inherit;fontSize=16;fontFamily=Helvetica;fontColor=default;startSize=30;verticalAlign=top;movable=0;resizable=0;rotatable=0;deletable=0;editable=0;locked=1;" parent="YnD6Rocj099rIB_h3GZ2-71" vertex="1">
          <mxGeometry x="131" width="329" height="70" as="geometry">
            <mxRectangle width="329" height="70" as="alternateBounds" />
          </mxGeometry>
        </mxCell>
        <mxCell id="YnD6Rocj099rIB_h3GZ2-65" style="shape=tableRow;horizontal=0;startSize=0;swimlaneHead=0;swimlaneBody=0;top=0;left=0;bottom=0;right=0;collapsible=0;dropTarget=0;fillColor=none;points=[[0,0.5],[1,0.5]];portConstraint=eastwest;strokeColor=inherit;fontSize=16;fontFamily=Helvetica;fontColor=default;html=1;movable=0;resizable=0;rotatable=0;deletable=0;editable=0;locked=1;connectable=0;" parent="YnD6Rocj099rIB_h3GZ2-55" vertex="1">
          <mxGeometry y="160" width="460" height="70" as="geometry" />
        </mxCell>
        <mxCell id="YnD6Rocj099rIB_h3GZ2-66" value="Pré-ccondições" style="shape=partialRectangle;html=1;whiteSpace=wrap;connectable=0;fillColor=none;top=0;left=0;bottom=0;right=0;overflow=hidden;pointerEvents=1;strokeColor=inherit;fontSize=16;fontFamily=Helvetica;fontColor=default;startSize=30;verticalAlign=top;movable=0;resizable=0;rotatable=0;deletable=0;editable=0;locked=1;" parent="YnD6Rocj099rIB_h3GZ2-65" vertex="1">
          <mxGeometry width="131" height="70" as="geometry">
            <mxRectangle width="131" height="70" as="alternateBounds" />
          </mxGeometry>
        </mxCell>
        <mxCell id="YnD6Rocj099rIB_h3GZ2-67" value="Não existir um cadastro do produto desejado" style="shape=partialRectangle;html=1;whiteSpace=wrap;connectable=0;fillColor=none;top=0;left=0;bottom=0;right=0;align=left;spacingLeft=6;overflow=hidden;strokeColor=inherit;fontSize=16;fontFamily=Helvetica;fontColor=default;startSize=30;verticalAlign=top;movable=0;resizable=0;rotatable=0;deletable=0;editable=0;locked=1;" parent="YnD6Rocj099rIB_h3GZ2-65" vertex="1">
          <mxGeometry x="131" width="329" height="70" as="geometry">
            <mxRectangle width="329" height="70" as="alternateBounds" />
          </mxGeometry>
        </mxCell>
        <mxCell id="YnD6Rocj099rIB_h3GZ2-56" value="" style="shape=tableRow;horizontal=0;startSize=0;swimlaneHead=0;swimlaneBody=0;top=0;left=0;bottom=0;right=0;collapsible=0;dropTarget=0;fillColor=none;points=[[0,0.5],[1,0.5]];portConstraint=eastwest;strokeColor=inherit;fontSize=16;fontFamily=Helvetica;fontColor=default;html=1;movable=0;resizable=0;rotatable=0;deletable=0;editable=0;locked=1;connectable=0;" parent="YnD6Rocj099rIB_h3GZ2-55" vertex="1">
          <mxGeometry y="230" width="460" height="330" as="geometry" />
        </mxCell>
        <mxCell id="YnD6Rocj099rIB_h3GZ2-57" value="Procedimentos" style="shape=partialRectangle;html=1;whiteSpace=wrap;connectable=0;fillColor=none;top=0;left=0;bottom=0;right=0;overflow=hidden;pointerEvents=1;strokeColor=inherit;fontSize=16;fontFamily=Helvetica;fontColor=default;startSize=30;verticalAlign=top;movable=0;resizable=0;rotatable=0;deletable=0;editable=0;locked=1;" parent="YnD6Rocj099rIB_h3GZ2-56" vertex="1">
          <mxGeometry width="131" height="330" as="geometry">
            <mxRectangle width="131" height="330" as="alternateBounds" />
          </mxGeometry>
        </mxCell>
        <mxCell id="YnD6Rocj099rIB_h3GZ2-58" value="1.Abra a aplicação&lt;br&gt;&lt;br&gt;2.Inserir o nome em &quot;nome do produto&quot;&lt;br&gt;&lt;br&gt;&lt;table style=&quot;border-collapse:&lt;br/&gt; collapse;width:200pt&quot; width=&quot;267&quot; cellspacing=&quot;0&quot; cellpadding=&quot;0&quot; border=&quot;0&quot;&gt;&lt;tbody&gt;&lt;tr style=&quot;height:15.0pt&quot; height=&quot;20&quot;&gt;  &lt;td style=&quot;height:15.0pt;width:200pt&quot; width=&quot;267&quot; height=&quot;20&quot;&gt;3.Selecionar a&lt;br&gt;  categoria em &quot;categoria&quot;&lt;br&gt;&lt;br&gt;&lt;table style=&quot;border-collapse:&lt;br/&gt; collapse;width:200pt&quot; width=&quot;267&quot; cellspacing=&quot;0&quot; cellpadding=&quot;0&quot; border=&quot;0&quot;&gt;&lt;tbody&gt;&lt;tr style=&quot;height:15.0pt&quot; height=&quot;20&quot;&gt;  &lt;td style=&quot;height:15.0pt;width:200pt&quot; width=&quot;267&quot; height=&quot;20&quot;&gt;4.Inserir o valor em&lt;br&gt;  &quot;Valor R$&quot;&lt;br&gt;&lt;br&gt;&lt;table style=&quot;border-collapse:&lt;br/&gt; collapse;width:200pt&quot; width=&quot;267&quot; cellspacing=&quot;0&quot; cellpadding=&quot;0&quot; border=&quot;0&quot;&gt;&lt;tbody&gt;&lt;tr style=&quot;height:15.0pt&quot; height=&quot;20&quot;&gt;  &lt;td style=&quot;height:15.0pt;width:200pt&quot; width=&quot;267&quot; height=&quot;20&quot;&gt;5.Inserir a&lt;br&gt;  quantidade em &quot;Quantidade&quot;&lt;br&gt;&lt;br&gt;&lt;table style=&quot;border-collapse:&lt;br/&gt; collapse;width:200pt&quot; width=&quot;267&quot; cellspacing=&quot;0&quot; cellpadding=&quot;0&quot; border=&quot;0&quot;&gt;&lt;tbody&gt;&lt;tr style=&quot;height:15.0pt&quot; height=&quot;20&quot;&gt;  &lt;td style=&quot;height:15.0pt;width:200pt&quot; width=&quot;267&quot; height=&quot;20&quot;&gt;6.Clicar no botão&lt;br&gt;  &quot;Cadastrar&quot;&lt;/td&gt;&lt;/tr&gt;&lt;/tbody&gt;&lt;/table&gt;&lt;/td&gt;&lt;/tr&gt;&lt;/tbody&gt;&lt;/table&gt;&lt;/td&gt;&lt;/tr&gt;&lt;/tbody&gt;&lt;/table&gt;&lt;/td&gt;&lt;/tr&gt;&lt;/tbody&gt;&lt;/table&gt;" style="shape=partialRectangle;html=1;whiteSpace=wrap;connectable=0;fillColor=none;top=0;left=0;bottom=0;right=0;align=left;spacingLeft=6;overflow=hidden;strokeColor=inherit;fontSize=16;fontFamily=Helvetica;fontColor=default;startSize=30;verticalAlign=top;movable=0;resizable=0;rotatable=0;deletable=0;editable=0;locked=1;" parent="YnD6Rocj099rIB_h3GZ2-56" vertex="1">
          <mxGeometry x="131" width="329" height="330" as="geometry">
            <mxRectangle width="329" height="330" as="alternateBounds" />
          </mxGeometry>
        </mxCell>
        <mxCell id="YnD6Rocj099rIB_h3GZ2-59" value="" style="shape=tableRow;horizontal=0;startSize=0;swimlaneHead=0;swimlaneBody=0;top=0;left=0;bottom=0;right=0;collapsible=0;dropTarget=0;fillColor=none;points=[[0,0.5],[1,0.5]];portConstraint=eastwest;strokeColor=inherit;fontSize=16;fontFamily=Helvetica;fontColor=default;html=1;movable=0;resizable=0;rotatable=0;deletable=0;editable=0;locked=1;connectable=0;" parent="YnD6Rocj099rIB_h3GZ2-55" vertex="1">
          <mxGeometry y="560" width="460" height="70" as="geometry" />
        </mxCell>
        <mxCell id="YnD6Rocj099rIB_h3GZ2-60" value="Pós-condições" style="shape=partialRectangle;html=1;whiteSpace=wrap;connectable=0;fillColor=none;top=0;left=0;bottom=0;right=0;overflow=hidden;strokeColor=inherit;fontSize=16;fontFamily=Helvetica;fontColor=default;startSize=30;verticalAlign=top;movable=0;resizable=0;rotatable=0;deletable=0;editable=0;locked=1;" parent="YnD6Rocj099rIB_h3GZ2-59" vertex="1">
          <mxGeometry width="131" height="70" as="geometry">
            <mxRectangle width="131" height="70" as="alternateBounds" />
          </mxGeometry>
        </mxCell>
        <mxCell id="YnD6Rocj099rIB_h3GZ2-61" value="O novo produto estar cadastrado" style="shape=partialRectangle;html=1;whiteSpace=wrap;connectable=0;fillColor=none;top=0;left=0;bottom=0;right=0;align=left;spacingLeft=6;overflow=hidden;strokeColor=inherit;fontSize=16;fontFamily=Helvetica;fontColor=default;startSize=30;verticalAlign=top;movable=0;resizable=0;rotatable=0;deletable=0;editable=0;locked=1;" parent="YnD6Rocj099rIB_h3GZ2-59" vertex="1">
          <mxGeometry x="131" width="329" height="70" as="geometry">
            <mxRectangle width="329" height="70" as="alternateBounds" />
          </mxGeometry>
        </mxCell>
        <mxCell id="zdOX9Ih-UgLRaYZ5D7JB-17" value="Caso de teste" style="shape=table;startSize=30;container=1;collapsible=0;childLayout=tableLayout;fixedRows=1;rowLines=0;fontStyle=0;strokeColor=#666666;fontSize=16;fontFamily=Helvetica;fontColor=#333333;fillColor=#f5f5f5;html=1;movable=0;resizable=0;rotatable=0;deletable=0;editable=0;locked=1;connectable=0;perimeterSpacing=0;strokeWidth=1;" parent="1" vertex="1">
          <mxGeometry x="-3990" y="-920" width="460" height="580" as="geometry" />
        </mxCell>
        <mxCell id="zdOX9Ih-UgLRaYZ5D7JB-18" style="shape=tableRow;horizontal=0;startSize=0;swimlaneHead=0;swimlaneBody=0;top=0;left=0;bottom=0;right=0;collapsible=0;dropTarget=0;fillColor=none;points=[[0,0.5],[1,0.5]];portConstraint=eastwest;strokeColor=inherit;fontSize=16;fontFamily=Helvetica;fontColor=default;html=1;movable=0;resizable=0;rotatable=0;deletable=0;editable=0;locked=1;connectable=0;" parent="zdOX9Ih-UgLRaYZ5D7JB-17" vertex="1">
          <mxGeometry y="30" width="460" height="60" as="geometry" />
        </mxCell>
        <mxCell id="zdOX9Ih-UgLRaYZ5D7JB-19" value="Nome" style="shape=partialRectangle;html=1;whiteSpace=wrap;connectable=0;fillColor=none;top=0;left=0;bottom=0;right=0;overflow=hidden;pointerEvents=1;strokeColor=inherit;fontSize=16;fontFamily=Helvetica;fontColor=default;startSize=30;verticalAlign=top;movable=0;resizable=0;rotatable=0;deletable=0;editable=0;locked=1;" parent="zdOX9Ih-UgLRaYZ5D7JB-18" vertex="1">
          <mxGeometry width="131" height="60" as="geometry">
            <mxRectangle width="131" height="60" as="alternateBounds" />
          </mxGeometry>
        </mxCell>
        <mxCell id="zdOX9Ih-UgLRaYZ5D7JB-20" value="Cadastrar tipo de pão&lt;br&gt;" style="shape=partialRectangle;html=1;whiteSpace=wrap;connectable=0;fillColor=none;top=0;left=0;bottom=0;right=0;align=left;spacingLeft=6;overflow=hidden;strokeColor=inherit;fontSize=16;fontFamily=Helvetica;fontColor=default;startSize=30;verticalAlign=top;movable=0;resizable=0;rotatable=0;deletable=0;editable=0;locked=1;" parent="zdOX9Ih-UgLRaYZ5D7JB-18" vertex="1">
          <mxGeometry x="131" width="329" height="60" as="geometry">
            <mxRectangle width="329" height="60" as="alternateBounds" />
          </mxGeometry>
        </mxCell>
        <mxCell id="zdOX9Ih-UgLRaYZ5D7JB-21" style="shape=tableRow;horizontal=0;startSize=0;swimlaneHead=0;swimlaneBody=0;top=0;left=0;bottom=0;right=0;collapsible=0;dropTarget=0;fillColor=none;points=[[0,0.5],[1,0.5]];portConstraint=eastwest;strokeColor=inherit;fontSize=16;fontFamily=Helvetica;fontColor=default;html=1;movable=0;resizable=0;rotatable=0;deletable=0;editable=0;locked=1;connectable=0;" parent="zdOX9Ih-UgLRaYZ5D7JB-17" vertex="1">
          <mxGeometry y="90" width="460" height="60" as="geometry" />
        </mxCell>
        <mxCell id="zdOX9Ih-UgLRaYZ5D7JB-22" value="Ator" style="shape=partialRectangle;html=1;whiteSpace=wrap;connectable=0;fillColor=none;top=0;left=0;bottom=0;right=0;overflow=hidden;pointerEvents=1;strokeColor=inherit;fontSize=16;fontFamily=Helvetica;fontColor=default;startSize=30;verticalAlign=top;movable=0;resizable=0;rotatable=0;deletable=0;editable=0;locked=1;" parent="zdOX9Ih-UgLRaYZ5D7JB-21" vertex="1">
          <mxGeometry width="131" height="60" as="geometry">
            <mxRectangle width="131" height="60" as="alternateBounds" />
          </mxGeometry>
        </mxCell>
        <mxCell id="zdOX9Ih-UgLRaYZ5D7JB-23" value="Funcionário" style="shape=partialRectangle;html=1;whiteSpace=wrap;connectable=0;fillColor=none;top=0;left=0;bottom=0;right=0;align=left;spacingLeft=6;overflow=hidden;strokeColor=inherit;fontSize=16;fontFamily=Helvetica;fontColor=default;startSize=30;verticalAlign=top;movable=0;resizable=0;rotatable=0;deletable=0;editable=0;locked=1;" parent="zdOX9Ih-UgLRaYZ5D7JB-21" vertex="1">
          <mxGeometry x="131" width="329" height="60" as="geometry">
            <mxRectangle width="329" height="60" as="alternateBounds" />
          </mxGeometry>
        </mxCell>
        <mxCell id="zdOX9Ih-UgLRaYZ5D7JB-24" style="shape=tableRow;horizontal=0;startSize=0;swimlaneHead=0;swimlaneBody=0;top=0;left=0;bottom=0;right=0;collapsible=0;dropTarget=0;fillColor=none;points=[[0,0.5],[1,0.5]];portConstraint=eastwest;strokeColor=inherit;fontSize=16;fontFamily=Helvetica;fontColor=default;html=1;movable=0;resizable=0;rotatable=0;deletable=0;editable=0;locked=1;connectable=0;" parent="zdOX9Ih-UgLRaYZ5D7JB-17" vertex="1">
          <mxGeometry y="150" width="460" height="70" as="geometry" />
        </mxCell>
        <mxCell id="zdOX9Ih-UgLRaYZ5D7JB-25" value="Pré-ccondições" style="shape=partialRectangle;html=1;whiteSpace=wrap;connectable=0;fillColor=none;top=0;left=0;bottom=0;right=0;overflow=hidden;pointerEvents=1;strokeColor=inherit;fontSize=16;fontFamily=Helvetica;fontColor=default;startSize=30;verticalAlign=top;movable=0;resizable=0;rotatable=0;deletable=0;editable=0;locked=1;" parent="zdOX9Ih-UgLRaYZ5D7JB-24" vertex="1">
          <mxGeometry width="131" height="70" as="geometry">
            <mxRectangle width="131" height="70" as="alternateBounds" />
          </mxGeometry>
        </mxCell>
        <mxCell id="zdOX9Ih-UgLRaYZ5D7JB-26" value="Não existir um cadastro do tipo de produto desejado" style="shape=partialRectangle;html=1;whiteSpace=wrap;connectable=0;fillColor=none;top=0;left=0;bottom=0;right=0;align=left;spacingLeft=6;overflow=hidden;strokeColor=inherit;fontSize=16;fontFamily=Helvetica;fontColor=default;startSize=30;verticalAlign=top;movable=0;resizable=0;rotatable=0;deletable=0;editable=0;locked=1;" parent="zdOX9Ih-UgLRaYZ5D7JB-24" vertex="1">
          <mxGeometry x="131" width="329" height="70" as="geometry">
            <mxRectangle width="329" height="70" as="alternateBounds" />
          </mxGeometry>
        </mxCell>
        <mxCell id="zdOX9Ih-UgLRaYZ5D7JB-27" value="" style="shape=tableRow;horizontal=0;startSize=0;swimlaneHead=0;swimlaneBody=0;top=0;left=0;bottom=0;right=0;collapsible=0;dropTarget=0;fillColor=none;points=[[0,0.5],[1,0.5]];portConstraint=eastwest;strokeColor=inherit;fontSize=16;fontFamily=Helvetica;fontColor=default;html=1;movable=0;resizable=0;rotatable=0;deletable=0;editable=0;locked=1;connectable=0;" parent="zdOX9Ih-UgLRaYZ5D7JB-17" vertex="1">
          <mxGeometry y="220" width="460" height="290" as="geometry" />
        </mxCell>
        <mxCell id="zdOX9Ih-UgLRaYZ5D7JB-28" value="Procedimentos" style="shape=partialRectangle;html=1;whiteSpace=wrap;connectable=0;fillColor=none;top=0;left=0;bottom=0;right=0;overflow=hidden;pointerEvents=1;strokeColor=inherit;fontSize=16;fontFamily=Helvetica;fontColor=default;startSize=30;verticalAlign=top;movable=0;resizable=0;rotatable=0;deletable=0;editable=0;locked=1;" parent="zdOX9Ih-UgLRaYZ5D7JB-27" vertex="1">
          <mxGeometry width="131" height="290" as="geometry">
            <mxRectangle width="131" height="290" as="alternateBounds" />
          </mxGeometry>
        </mxCell>
        <mxCell id="zdOX9Ih-UgLRaYZ5D7JB-29" value="1.Abra a aplicação&lt;br&gt;&lt;br&gt;2.Inserir o nome em &quot;nome&amp;nbsp;do&lt;br&gt;tipo de pão&quot;&lt;br&gt;&lt;br&gt;&lt;table style=&quot;border-collapse:&lt;br/&gt; collapse;width:200pt&quot; width=&quot;267&quot; cellspacing=&quot;0&quot; cellpadding=&quot;0&quot; border=&quot;0&quot;&gt;&lt;tbody&gt;&lt;tr style=&quot;height:15.0pt&quot; height=&quot;20&quot;&gt;  &lt;td style=&quot;height:15.0pt;width:200pt&quot; width=&quot;267&quot; height=&quot;20&quot;&gt;3.Inserir&amp;nbsp;a descrição do&amp;nbsp;tipo de&lt;br&gt;pão em &quot;descrição do item&quot;&lt;br&gt;&lt;br&gt;&lt;table style=&quot;border-collapse:&lt;br/&gt; collapse;width:200pt&quot; width=&quot;267&quot; cellspacing=&quot;0&quot; cellpadding=&quot;0&quot; border=&quot;0&quot;&gt;&lt;tbody&gt;&lt;tr style=&quot;height:15.0pt&quot; height=&quot;20&quot;&gt;  &lt;td style=&quot;height:15.0pt;width:200pt&quot; width=&quot;267&quot; height=&quot;20&quot;&gt;4.Inserir as fotos dos tipos em &quot;fotos do produto&quot;&lt;br&gt;&lt;table style=&quot;border-collapse:&lt;br/&gt; collapse;width:200pt&quot; width=&quot;267&quot; cellspacing=&quot;0&quot; cellpadding=&quot;0&quot; border=&quot;0&quot;&gt;&lt;tbody&gt;&lt;tr style=&quot;height:15.0pt&quot; height=&quot;20&quot;&gt;&lt;td style=&quot;height:15.0pt;width:200pt&quot; width=&quot;267&quot; height=&quot;20&quot;&gt;&lt;br&gt;5. Clicar no botão&lt;br style=&quot;border-color: var(--border-color);&quot;&gt;&quot;Cadastrar&quot;&lt;/td&gt;&lt;/tr&gt;&lt;/tbody&gt;&lt;/table&gt;&lt;/td&gt;&lt;/tr&gt;&lt;/tbody&gt;&lt;/table&gt;&lt;/td&gt;&lt;/tr&gt;&lt;/tbody&gt;&lt;/table&gt;" style="shape=partialRectangle;html=1;whiteSpace=wrap;connectable=0;fillColor=none;top=0;left=0;bottom=0;right=0;align=left;spacingLeft=6;overflow=hidden;strokeColor=inherit;fontSize=16;fontFamily=Helvetica;fontColor=default;startSize=30;verticalAlign=top;movable=0;resizable=0;rotatable=0;deletable=0;editable=0;locked=1;" parent="zdOX9Ih-UgLRaYZ5D7JB-27" vertex="1">
          <mxGeometry x="131" width="329" height="290" as="geometry">
            <mxRectangle width="329" height="290" as="alternateBounds" />
          </mxGeometry>
        </mxCell>
        <mxCell id="zdOX9Ih-UgLRaYZ5D7JB-30" value="" style="shape=tableRow;horizontal=0;startSize=0;swimlaneHead=0;swimlaneBody=0;top=0;left=0;bottom=0;right=0;collapsible=0;dropTarget=0;fillColor=none;points=[[0,0.5],[1,0.5]];portConstraint=eastwest;strokeColor=inherit;fontSize=16;fontFamily=Helvetica;fontColor=default;html=1;movable=0;resizable=0;rotatable=0;deletable=0;editable=0;locked=1;connectable=0;" parent="zdOX9Ih-UgLRaYZ5D7JB-17" vertex="1">
          <mxGeometry y="510" width="460" height="70" as="geometry" />
        </mxCell>
        <mxCell id="zdOX9Ih-UgLRaYZ5D7JB-31" value="Pós-condições" style="shape=partialRectangle;html=1;whiteSpace=wrap;connectable=0;fillColor=none;top=0;left=0;bottom=0;right=0;overflow=hidden;strokeColor=inherit;fontSize=16;fontFamily=Helvetica;fontColor=default;startSize=30;verticalAlign=top;movable=0;resizable=0;rotatable=0;deletable=0;editable=0;locked=1;" parent="zdOX9Ih-UgLRaYZ5D7JB-30" vertex="1">
          <mxGeometry width="131" height="70" as="geometry">
            <mxRectangle width="131" height="70" as="alternateBounds" />
          </mxGeometry>
        </mxCell>
        <mxCell id="zdOX9Ih-UgLRaYZ5D7JB-32" value="O novo tipo de produto estar cadastrado" style="shape=partialRectangle;html=1;whiteSpace=wrap;connectable=0;fillColor=none;top=0;left=0;bottom=0;right=0;align=left;spacingLeft=6;overflow=hidden;strokeColor=inherit;fontSize=16;fontFamily=Helvetica;fontColor=default;startSize=30;verticalAlign=top;movable=0;resizable=0;rotatable=0;deletable=0;editable=0;locked=1;perimeterSpacing=1;strokeWidth=5;" parent="zdOX9Ih-UgLRaYZ5D7JB-30" vertex="1">
          <mxGeometry x="131" width="329" height="70" as="geometry">
            <mxRectangle width="329" height="70" as="alternateBounds" />
          </mxGeometry>
        </mxCell>
        <mxCell id="zdOX9Ih-UgLRaYZ5D7JB-34" value="Caso de teste" style="shape=table;startSize=30;container=1;collapsible=0;childLayout=tableLayout;fixedRows=1;rowLines=0;fontStyle=0;strokeColor=default;fontSize=16;fontFamily=Helvetica;fontColor=default;fillColor=none;html=1;movable=0;resizable=0;rotatable=0;deletable=0;editable=0;locked=1;connectable=0;" parent="1" vertex="1">
          <mxGeometry x="-3480" y="-1590" width="460" height="610" as="geometry" />
        </mxCell>
        <mxCell id="zdOX9Ih-UgLRaYZ5D7JB-35" style="shape=tableRow;horizontal=0;startSize=0;swimlaneHead=0;swimlaneBody=0;top=0;left=0;bottom=0;right=0;collapsible=0;dropTarget=0;fillColor=none;points=[[0,0.5],[1,0.5]];portConstraint=eastwest;strokeColor=inherit;fontSize=16;fontFamily=Helvetica;fontColor=default;html=1;movable=0;resizable=0;rotatable=0;deletable=0;editable=0;locked=1;connectable=0;" parent="zdOX9Ih-UgLRaYZ5D7JB-34" vertex="1">
          <mxGeometry y="30" width="460" height="60" as="geometry" />
        </mxCell>
        <mxCell id="zdOX9Ih-UgLRaYZ5D7JB-36" value="Nome" style="shape=partialRectangle;html=1;whiteSpace=wrap;connectable=0;fillColor=none;top=0;left=0;bottom=0;right=0;overflow=hidden;pointerEvents=1;strokeColor=inherit;fontSize=16;fontFamily=Helvetica;fontColor=default;startSize=30;verticalAlign=top;movable=0;resizable=0;rotatable=0;deletable=0;editable=0;locked=1;" parent="zdOX9Ih-UgLRaYZ5D7JB-35" vertex="1">
          <mxGeometry width="131" height="60" as="geometry">
            <mxRectangle width="131" height="60" as="alternateBounds" />
          </mxGeometry>
        </mxCell>
        <mxCell id="zdOX9Ih-UgLRaYZ5D7JB-37" value="Cadastrar cliente" style="shape=partialRectangle;html=1;whiteSpace=wrap;connectable=0;fillColor=none;top=0;left=0;bottom=0;right=0;align=left;spacingLeft=6;overflow=hidden;strokeColor=inherit;fontSize=16;fontFamily=Helvetica;fontColor=default;startSize=30;verticalAlign=top;movable=0;resizable=0;rotatable=0;deletable=0;editable=0;locked=1;" parent="zdOX9Ih-UgLRaYZ5D7JB-35" vertex="1">
          <mxGeometry x="131" width="329" height="60" as="geometry">
            <mxRectangle width="329" height="60" as="alternateBounds" />
          </mxGeometry>
        </mxCell>
        <mxCell id="zdOX9Ih-UgLRaYZ5D7JB-38" style="shape=tableRow;horizontal=0;startSize=0;swimlaneHead=0;swimlaneBody=0;top=0;left=0;bottom=0;right=0;collapsible=0;dropTarget=0;fillColor=none;points=[[0,0.5],[1,0.5]];portConstraint=eastwest;strokeColor=inherit;fontSize=16;fontFamily=Helvetica;fontColor=default;html=1;movable=0;resizable=0;rotatable=0;deletable=0;editable=0;locked=1;connectable=0;" parent="zdOX9Ih-UgLRaYZ5D7JB-34" vertex="1">
          <mxGeometry y="90" width="460" height="70" as="geometry" />
        </mxCell>
        <mxCell id="zdOX9Ih-UgLRaYZ5D7JB-39" value="Ator" style="shape=partialRectangle;html=1;whiteSpace=wrap;connectable=0;fillColor=none;top=0;left=0;bottom=0;right=0;overflow=hidden;pointerEvents=1;strokeColor=inherit;fontSize=16;fontFamily=Helvetica;fontColor=default;startSize=30;verticalAlign=top;movable=0;resizable=0;rotatable=0;deletable=0;editable=0;locked=1;" parent="zdOX9Ih-UgLRaYZ5D7JB-38" vertex="1">
          <mxGeometry width="131" height="70" as="geometry">
            <mxRectangle width="131" height="70" as="alternateBounds" />
          </mxGeometry>
        </mxCell>
        <mxCell id="zdOX9Ih-UgLRaYZ5D7JB-40" value="Usuário" style="shape=partialRectangle;html=1;whiteSpace=wrap;connectable=0;fillColor=none;top=0;left=0;bottom=0;right=0;align=left;spacingLeft=6;overflow=hidden;strokeColor=inherit;fontSize=16;fontFamily=Helvetica;fontColor=default;startSize=30;verticalAlign=top;movable=0;resizable=0;rotatable=0;deletable=0;editable=0;locked=1;" parent="zdOX9Ih-UgLRaYZ5D7JB-38" vertex="1">
          <mxGeometry x="131" width="329" height="70" as="geometry">
            <mxRectangle width="329" height="70" as="alternateBounds" />
          </mxGeometry>
        </mxCell>
        <mxCell id="zdOX9Ih-UgLRaYZ5D7JB-41" style="shape=tableRow;horizontal=0;startSize=0;swimlaneHead=0;swimlaneBody=0;top=0;left=0;bottom=0;right=0;collapsible=0;dropTarget=0;fillColor=none;points=[[0,0.5],[1,0.5]];portConstraint=eastwest;strokeColor=inherit;fontSize=16;fontFamily=Helvetica;fontColor=default;html=1;movable=0;resizable=0;rotatable=0;deletable=0;editable=0;locked=1;connectable=0;" parent="zdOX9Ih-UgLRaYZ5D7JB-34" vertex="1">
          <mxGeometry y="160" width="460" height="80" as="geometry" />
        </mxCell>
        <mxCell id="zdOX9Ih-UgLRaYZ5D7JB-42" value="Pré-ccondições" style="shape=partialRectangle;html=1;whiteSpace=wrap;connectable=0;fillColor=none;top=0;left=0;bottom=0;right=0;overflow=hidden;pointerEvents=1;strokeColor=inherit;fontSize=16;fontFamily=Helvetica;fontColor=default;startSize=30;verticalAlign=top;movable=0;resizable=0;rotatable=0;deletable=0;editable=0;locked=1;" parent="zdOX9Ih-UgLRaYZ5D7JB-41" vertex="1">
          <mxGeometry width="131" height="80" as="geometry">
            <mxRectangle width="131" height="80" as="alternateBounds" />
          </mxGeometry>
        </mxCell>
        <mxCell id="zdOX9Ih-UgLRaYZ5D7JB-43" value="Não existir um cadastro de cliente com os mesmos dados" style="shape=partialRectangle;html=1;whiteSpace=wrap;connectable=0;fillColor=none;top=0;left=0;bottom=0;right=0;align=left;spacingLeft=6;overflow=hidden;strokeColor=inherit;fontSize=16;fontFamily=Helvetica;fontColor=default;startSize=30;verticalAlign=top;movable=0;resizable=0;rotatable=0;deletable=0;editable=0;locked=1;" parent="zdOX9Ih-UgLRaYZ5D7JB-41" vertex="1">
          <mxGeometry x="131" width="329" height="80" as="geometry">
            <mxRectangle width="329" height="80" as="alternateBounds" />
          </mxGeometry>
        </mxCell>
        <mxCell id="zdOX9Ih-UgLRaYZ5D7JB-44" value="" style="shape=tableRow;horizontal=0;startSize=0;swimlaneHead=0;swimlaneBody=0;top=0;left=0;bottom=0;right=0;collapsible=0;dropTarget=0;fillColor=none;points=[[0,0.5],[1,0.5]];portConstraint=eastwest;strokeColor=inherit;fontSize=16;fontFamily=Helvetica;fontColor=default;html=1;movable=0;resizable=0;rotatable=0;deletable=0;editable=0;locked=1;connectable=0;" parent="zdOX9Ih-UgLRaYZ5D7JB-34" vertex="1">
          <mxGeometry y="240" width="460" height="300" as="geometry" />
        </mxCell>
        <mxCell id="zdOX9Ih-UgLRaYZ5D7JB-45" value="Procedimentos" style="shape=partialRectangle;html=1;whiteSpace=wrap;connectable=0;fillColor=none;top=0;left=0;bottom=0;right=0;overflow=hidden;pointerEvents=1;strokeColor=inherit;fontSize=16;fontFamily=Helvetica;fontColor=default;startSize=30;verticalAlign=top;movable=0;resizable=0;rotatable=0;deletable=0;editable=0;locked=1;" parent="zdOX9Ih-UgLRaYZ5D7JB-44" vertex="1">
          <mxGeometry width="131" height="300" as="geometry">
            <mxRectangle width="131" height="300" as="alternateBounds" />
          </mxGeometry>
        </mxCell>
        <mxCell id="zdOX9Ih-UgLRaYZ5D7JB-46" value="1.Abra a aplicação&lt;br&gt;&lt;br&gt;2.Inserir os dados referentes ao cliente em &quot;dados do cliente&quot;&lt;br&gt;&lt;br style=&quot;border-color: var(--border-color);&quot;&gt;2.Inserir os dados referentes ao endereço em &quot;endereço&quot;&lt;br&gt;&lt;br style=&quot;border-color: var(--border-color);&quot;&gt;5.Inserir os dados referentes ao contato em &quot;contato&quot;&lt;br&gt;&lt;table style=&quot;border-collapse:&lt;br/&gt; collapse;width:200pt&quot; width=&quot;267&quot; cellspacing=&quot;0&quot; cellpadding=&quot;0&quot; border=&quot;0&quot;&gt;&lt;tbody&gt;&lt;tr style=&quot;height:15.0pt&quot; height=&quot;20&quot;&gt;  &lt;td style=&quot;height:15.0pt;width:200pt&quot; width=&quot;267&quot; height=&quot;20&quot;&gt;&lt;table style=&quot;border-collapse:&lt;br/&gt; collapse;width:200pt&quot; width=&quot;267&quot; cellspacing=&quot;0&quot; cellpadding=&quot;0&quot; border=&quot;0&quot;&gt;&lt;tbody&gt;&lt;tr style=&quot;height:15.0pt&quot; height=&quot;20&quot;&gt;&lt;td style=&quot;height:15.0pt;width:200pt&quot; width=&quot;267&quot; height=&quot;20&quot;&gt;&lt;table style=&quot;border-collapse:&lt;br/&gt; collapse;width:200pt&quot; width=&quot;267&quot; cellspacing=&quot;0&quot; cellpadding=&quot;0&quot; border=&quot;0&quot;&gt;&lt;tbody&gt;&lt;tr style=&quot;height:15.0pt&quot; height=&quot;20&quot;&gt;&lt;td style=&quot;height:15.0pt;width:200pt&quot; width=&quot;267&quot; height=&quot;20&quot;&gt;&lt;br&gt;&lt;table style=&quot;border-collapse:&lt;br/&gt; collapse;width:200pt&quot; width=&quot;267&quot; cellspacing=&quot;0&quot; cellpadding=&quot;0&quot; border=&quot;0&quot;&gt;&lt;tbody&gt;&lt;tr style=&quot;height:15.0pt&quot; height=&quot;20&quot;&gt;  &lt;td style=&quot;height:15.0pt;width:200pt&quot; width=&quot;267&quot; height=&quot;20&quot;&gt;5.Clicar no botão&lt;br&gt;  &quot;Cadastrar&quot;&lt;/td&gt;&lt;/tr&gt;&lt;/tbody&gt;&lt;/table&gt;&lt;/td&gt;&lt;/tr&gt;&lt;/tbody&gt;&lt;/table&gt;&lt;/td&gt;&lt;/tr&gt;&lt;/tbody&gt;&lt;/table&gt;&lt;/td&gt;&lt;/tr&gt;&lt;/tbody&gt;&lt;/table&gt;" style="shape=partialRectangle;html=1;whiteSpace=wrap;connectable=0;fillColor=none;top=0;left=0;bottom=0;right=0;align=left;spacingLeft=6;overflow=hidden;strokeColor=inherit;fontSize=16;fontFamily=Helvetica;fontColor=default;startSize=30;verticalAlign=top;movable=0;resizable=0;rotatable=0;deletable=0;editable=0;locked=1;" parent="zdOX9Ih-UgLRaYZ5D7JB-44" vertex="1">
          <mxGeometry x="131" width="329" height="300" as="geometry">
            <mxRectangle width="329" height="300" as="alternateBounds" />
          </mxGeometry>
        </mxCell>
        <mxCell id="zdOX9Ih-UgLRaYZ5D7JB-47" value="" style="shape=tableRow;horizontal=0;startSize=0;swimlaneHead=0;swimlaneBody=0;top=0;left=0;bottom=0;right=0;collapsible=0;dropTarget=0;fillColor=none;points=[[0,0.5],[1,0.5]];portConstraint=eastwest;strokeColor=inherit;fontSize=16;fontFamily=Helvetica;fontColor=default;html=1;movable=0;resizable=0;rotatable=0;deletable=0;editable=0;locked=1;connectable=0;" parent="zdOX9Ih-UgLRaYZ5D7JB-34" vertex="1">
          <mxGeometry y="540" width="460" height="70" as="geometry" />
        </mxCell>
        <mxCell id="zdOX9Ih-UgLRaYZ5D7JB-48" value="Pós-condições" style="shape=partialRectangle;html=1;whiteSpace=wrap;connectable=0;fillColor=none;top=0;left=0;bottom=0;right=0;overflow=hidden;strokeColor=inherit;fontSize=16;fontFamily=Helvetica;fontColor=default;startSize=30;verticalAlign=top;movable=0;resizable=0;rotatable=0;deletable=0;editable=0;locked=1;" parent="zdOX9Ih-UgLRaYZ5D7JB-47" vertex="1">
          <mxGeometry width="131" height="70" as="geometry">
            <mxRectangle width="131" height="70" as="alternateBounds" />
          </mxGeometry>
        </mxCell>
        <mxCell id="zdOX9Ih-UgLRaYZ5D7JB-49" value="O novo cliente estar cadastrado" style="shape=partialRectangle;html=1;whiteSpace=wrap;connectable=0;fillColor=none;top=0;left=0;bottom=0;right=0;align=left;spacingLeft=6;overflow=hidden;strokeColor=inherit;fontSize=16;fontFamily=Helvetica;fontColor=default;startSize=30;verticalAlign=top;movable=0;resizable=0;rotatable=0;deletable=0;editable=0;locked=1;" parent="zdOX9Ih-UgLRaYZ5D7JB-47" vertex="1">
          <mxGeometry x="131" width="329" height="70" as="geometry">
            <mxRectangle width="329" height="70" as="alternateBounds" />
          </mxGeometry>
        </mxCell>
        <mxCell id="hfaAtWTm47N9MxbNHg6f-1" value="Caso de teste" style="shape=table;startSize=30;container=1;collapsible=0;childLayout=tableLayout;fixedRows=1;rowLines=0;fontStyle=0;strokeColor=#666666;fontSize=16;fontFamily=Helvetica;fontColor=#333333;fillColor=#f5f5f5;html=1;movable=1;resizable=1;rotatable=1;deletable=1;editable=1;locked=0;connectable=1;perimeterSpacing=0;strokeWidth=1;" parent="1" vertex="1">
          <mxGeometry x="-3480" y="-920" width="460" height="750" as="geometry" />
        </mxCell>
        <mxCell id="hfaAtWTm47N9MxbNHg6f-2" style="shape=tableRow;horizontal=0;startSize=0;swimlaneHead=0;swimlaneBody=0;top=0;left=0;bottom=0;right=0;collapsible=0;dropTarget=0;fillColor=none;points=[[0,0.5],[1,0.5]];portConstraint=eastwest;strokeColor=inherit;fontSize=16;fontFamily=Helvetica;fontColor=default;html=1;movable=1;resizable=1;rotatable=1;deletable=1;editable=1;locked=0;connectable=1;" parent="hfaAtWTm47N9MxbNHg6f-1" vertex="1">
          <mxGeometry y="30" width="460" height="60" as="geometry" />
        </mxCell>
        <mxCell id="hfaAtWTm47N9MxbNHg6f-3" value="Nome" style="shape=partialRectangle;html=1;whiteSpace=wrap;connectable=1;fillColor=none;top=0;left=0;bottom=0;right=0;overflow=hidden;pointerEvents=1;strokeColor=inherit;fontSize=16;fontFamily=Helvetica;fontColor=default;startSize=30;verticalAlign=top;movable=1;resizable=1;rotatable=1;deletable=1;editable=1;locked=0;" parent="hfaAtWTm47N9MxbNHg6f-2" vertex="1">
          <mxGeometry width="131" height="60" as="geometry">
            <mxRectangle width="131" height="60" as="alternateBounds" />
          </mxGeometry>
        </mxCell>
        <mxCell id="hfaAtWTm47N9MxbNHg6f-4" value="Tela de pedidos" style="shape=partialRectangle;html=1;whiteSpace=wrap;connectable=1;fillColor=none;top=0;left=0;bottom=0;right=0;align=left;spacingLeft=6;overflow=hidden;strokeColor=inherit;fontSize=16;fontFamily=Helvetica;fontColor=default;startSize=30;verticalAlign=top;movable=1;resizable=1;rotatable=1;deletable=1;editable=1;locked=0;" parent="hfaAtWTm47N9MxbNHg6f-2" vertex="1">
          <mxGeometry x="131" width="329" height="60" as="geometry">
            <mxRectangle width="329" height="60" as="alternateBounds" />
          </mxGeometry>
        </mxCell>
        <mxCell id="hfaAtWTm47N9MxbNHg6f-5" style="shape=tableRow;horizontal=0;startSize=0;swimlaneHead=0;swimlaneBody=0;top=0;left=0;bottom=0;right=0;collapsible=0;dropTarget=0;fillColor=none;points=[[0,0.5],[1,0.5]];portConstraint=eastwest;strokeColor=inherit;fontSize=16;fontFamily=Helvetica;fontColor=default;html=1;movable=1;resizable=1;rotatable=1;deletable=1;editable=1;locked=0;connectable=1;" parent="hfaAtWTm47N9MxbNHg6f-1" vertex="1">
          <mxGeometry y="90" width="460" height="60" as="geometry" />
        </mxCell>
        <mxCell id="hfaAtWTm47N9MxbNHg6f-6" value="Ator" style="shape=partialRectangle;html=1;whiteSpace=wrap;connectable=1;fillColor=none;top=0;left=0;bottom=0;right=0;overflow=hidden;pointerEvents=1;strokeColor=inherit;fontSize=16;fontFamily=Helvetica;fontColor=default;startSize=30;verticalAlign=top;movable=1;resizable=1;rotatable=1;deletable=1;editable=1;locked=0;" parent="hfaAtWTm47N9MxbNHg6f-5" vertex="1">
          <mxGeometry width="131" height="60" as="geometry">
            <mxRectangle width="131" height="60" as="alternateBounds" />
          </mxGeometry>
        </mxCell>
        <mxCell id="hfaAtWTm47N9MxbNHg6f-7" value="Usuário" style="shape=partialRectangle;html=1;whiteSpace=wrap;connectable=1;fillColor=none;top=0;left=0;bottom=0;right=0;align=left;spacingLeft=6;overflow=hidden;strokeColor=inherit;fontSize=16;fontFamily=Helvetica;fontColor=default;startSize=30;verticalAlign=top;movable=1;resizable=1;rotatable=1;deletable=1;editable=1;locked=0;" parent="hfaAtWTm47N9MxbNHg6f-5" vertex="1">
          <mxGeometry x="131" width="329" height="60" as="geometry">
            <mxRectangle width="329" height="60" as="alternateBounds" />
          </mxGeometry>
        </mxCell>
        <mxCell id="hfaAtWTm47N9MxbNHg6f-8" style="shape=tableRow;horizontal=0;startSize=0;swimlaneHead=0;swimlaneBody=0;top=0;left=0;bottom=0;right=0;collapsible=0;dropTarget=0;fillColor=none;points=[[0,0.5],[1,0.5]];portConstraint=eastwest;strokeColor=inherit;fontSize=16;fontFamily=Helvetica;fontColor=default;html=1;movable=1;resizable=1;rotatable=1;deletable=1;editable=1;locked=0;connectable=1;" parent="hfaAtWTm47N9MxbNHg6f-1" vertex="1">
          <mxGeometry y="150" width="460" height="110" as="geometry" />
        </mxCell>
        <mxCell id="hfaAtWTm47N9MxbNHg6f-9" value="Pré-condições" style="shape=partialRectangle;html=1;whiteSpace=wrap;connectable=1;fillColor=none;top=0;left=0;bottom=0;right=0;overflow=hidden;pointerEvents=1;strokeColor=inherit;fontSize=16;fontFamily=Helvetica;fontColor=default;startSize=30;verticalAlign=top;movable=1;resizable=1;rotatable=1;deletable=1;editable=1;locked=0;" parent="hfaAtWTm47N9MxbNHg6f-8" vertex="1">
          <mxGeometry width="131" height="110" as="geometry">
            <mxRectangle width="131" height="110" as="alternateBounds" />
          </mxGeometry>
        </mxCell>
        <mxCell id="hfaAtWTm47N9MxbNHg6f-10" value="Não existir nenhum impossibilidade do preenchimento das informações essenciais para fazer o pedido." style="shape=partialRectangle;html=1;whiteSpace=wrap;connectable=1;fillColor=none;top=0;left=0;bottom=0;right=0;align=left;spacingLeft=6;overflow=hidden;strokeColor=inherit;fontSize=16;fontFamily=Helvetica;fontColor=default;startSize=30;verticalAlign=top;movable=1;resizable=1;rotatable=1;deletable=1;editable=1;locked=0;" parent="hfaAtWTm47N9MxbNHg6f-8" vertex="1">
          <mxGeometry x="131" width="329" height="110" as="geometry">
            <mxRectangle width="329" height="110" as="alternateBounds" />
          </mxGeometry>
        </mxCell>
        <mxCell id="hfaAtWTm47N9MxbNHg6f-11" value="" style="shape=tableRow;horizontal=0;startSize=0;swimlaneHead=0;swimlaneBody=0;top=0;left=0;bottom=0;right=0;collapsible=0;dropTarget=0;fillColor=none;points=[[0,0.5],[1,0.5]];portConstraint=eastwest;strokeColor=inherit;fontSize=16;fontFamily=Helvetica;fontColor=default;html=1;movable=1;resizable=1;rotatable=1;deletable=1;editable=1;locked=0;connectable=1;" parent="hfaAtWTm47N9MxbNHg6f-1" vertex="1">
          <mxGeometry y="260" width="460" height="420" as="geometry" />
        </mxCell>
        <mxCell id="hfaAtWTm47N9MxbNHg6f-12" value="Procedimentos" style="shape=partialRectangle;html=1;whiteSpace=wrap;connectable=1;fillColor=none;top=0;left=0;bottom=0;right=0;overflow=hidden;pointerEvents=1;strokeColor=inherit;fontSize=16;fontFamily=Helvetica;fontColor=default;startSize=30;verticalAlign=top;movable=1;resizable=1;rotatable=1;deletable=1;editable=1;locked=0;" parent="hfaAtWTm47N9MxbNHg6f-11" vertex="1">
          <mxGeometry width="131" height="420" as="geometry">
            <mxRectangle width="131" height="420" as="alternateBounds" />
          </mxGeometry>
        </mxCell>
        <mxCell id="hfaAtWTm47N9MxbNHg6f-13" value="1.Abra a aplicação&lt;br&gt;&lt;br&gt;&lt;table style=&quot;border-collapse:&lt;br/&gt; collapse;width:200pt&quot; width=&quot;267&quot; cellspacing=&quot;0&quot; cellpadding=&quot;0&quot; border=&quot;0&quot;&gt;&lt;tbody&gt;&lt;tr style=&quot;height:15.0pt&quot; height=&quot;20&quot;&gt;  &lt;td style=&quot;height:15.0pt;width:200pt&quot; width=&quot;267&quot; height=&quot;20&quot;&gt;2.Inserir o &quot;nome do tipo do produto&quot;&lt;br&gt;&lt;br&gt;&lt;table style=&quot;border-collapse:&lt;br/&gt; collapse;width:200pt&quot; width=&quot;267&quot; cellspacing=&quot;0&quot; cellpadding=&quot;0&quot; border=&quot;0&quot;&gt;&lt;tbody&gt;&lt;tr style=&quot;height:15.0pt&quot; height=&quot;20&quot;&gt;  &lt;td style=&quot;height:15.0pt;width:200pt&quot; width=&quot;267&quot; height=&quot;20&quot;&gt;3.Inserir a &quot;quantidade&quot;&lt;br&gt;&lt;table style=&quot;border-collapse:&lt;br/&gt; collapse;width:200pt&quot; width=&quot;267&quot; cellspacing=&quot;0&quot; cellpadding=&quot;0&quot; border=&quot;0&quot;&gt;&lt;tbody&gt;&lt;tr style=&quot;height:15.0pt&quot; height=&quot;20&quot;&gt;&lt;td style=&quot;height:15.0pt;width:200pt&quot; width=&quot;267&quot; height=&quot;20&quot;&gt;&lt;br&gt;4. Verificar auto preenchimento do campo &quot;valor&quot;&lt;br&gt;&lt;br&gt;5. Verificar o auto preenchimento dos campos &quot;Descrição do pedido&quot;&lt;br&gt;&lt;br&gt;6. Verificar auto preenchimento do campo &quot;valor total do pedido&quot;&lt;br&gt;&lt;br&gt;7. Clicar no botão &quot;Salvar&quot;&lt;br&gt;&lt;br&gt;8. Se não for cadastrado, preencher tela de cadastro rápido com os dados necessários&lt;br&gt;&lt;/td&gt;&lt;/tr&gt;&lt;/tbody&gt;&lt;/table&gt;&lt;/td&gt;&lt;/tr&gt;&lt;/tbody&gt;&lt;/table&gt;&lt;/td&gt;&lt;/tr&gt;&lt;/tbody&gt;&lt;/table&gt;" style="shape=partialRectangle;html=1;whiteSpace=wrap;connectable=1;fillColor=none;top=0;left=0;bottom=0;right=0;align=left;spacingLeft=6;overflow=hidden;strokeColor=inherit;fontSize=16;fontFamily=Helvetica;fontColor=default;startSize=30;verticalAlign=top;movable=1;resizable=1;rotatable=1;deletable=1;editable=1;locked=0;" parent="hfaAtWTm47N9MxbNHg6f-11" vertex="1">
          <mxGeometry x="131" width="329" height="420" as="geometry">
            <mxRectangle width="329" height="420" as="alternateBounds" />
          </mxGeometry>
        </mxCell>
        <mxCell id="hfaAtWTm47N9MxbNHg6f-14" value="" style="shape=tableRow;horizontal=0;startSize=0;swimlaneHead=0;swimlaneBody=0;top=0;left=0;bottom=0;right=0;collapsible=0;dropTarget=0;fillColor=none;points=[[0,0.5],[1,0.5]];portConstraint=eastwest;strokeColor=inherit;fontSize=16;fontFamily=Helvetica;fontColor=default;html=1;movable=1;resizable=1;rotatable=1;deletable=1;editable=1;locked=0;connectable=1;" parent="hfaAtWTm47N9MxbNHg6f-1" vertex="1">
          <mxGeometry y="680" width="460" height="70" as="geometry" />
        </mxCell>
        <mxCell id="hfaAtWTm47N9MxbNHg6f-15" value="Pós-condições" style="shape=partialRectangle;html=1;whiteSpace=wrap;connectable=1;fillColor=none;top=0;left=0;bottom=0;right=0;overflow=hidden;strokeColor=inherit;fontSize=16;fontFamily=Helvetica;fontColor=default;startSize=30;verticalAlign=top;movable=1;resizable=1;rotatable=1;deletable=1;editable=1;locked=0;" parent="hfaAtWTm47N9MxbNHg6f-14" vertex="1">
          <mxGeometry width="131" height="70" as="geometry">
            <mxRectangle width="131" height="70" as="alternateBounds" />
          </mxGeometry>
        </mxCell>
        <mxCell id="hfaAtWTm47N9MxbNHg6f-16" value="o pedido deve ser salvo com as informações do cliente e produtos." style="shape=partialRectangle;html=1;whiteSpace=wrap;connectable=1;fillColor=none;top=0;left=0;bottom=0;right=0;align=left;spacingLeft=6;overflow=hidden;strokeColor=inherit;fontSize=16;fontFamily=Helvetica;fontColor=default;startSize=30;verticalAlign=top;movable=1;resizable=1;rotatable=1;deletable=1;editable=1;locked=0;perimeterSpacing=1;strokeWidth=5;" parent="hfaAtWTm47N9MxbNHg6f-14" vertex="1">
          <mxGeometry x="131" width="329" height="70" as="geometry">
            <mxRectangle width="329" height="70" as="alternateBounds" />
          </mxGeometry>
        </mxCell>
        <mxCell id="__dQNG1dzo80600j9WUh-1" value="Caso de teste" style="shape=table;startSize=30;container=1;collapsible=0;childLayout=tableLayout;fixedRows=1;rowLines=0;fontStyle=0;strokeColor=#666666;fontSize=16;fontFamily=Helvetica;fontColor=#333333;fillColor=#f5f5f5;html=1;movable=1;resizable=1;rotatable=1;deletable=1;editable=1;locked=0;connectable=1;perimeterSpacing=0;strokeWidth=1;" vertex="1" parent="1">
          <mxGeometry x="-2970" y="-1590" width="460" height="750" as="geometry" />
        </mxCell>
        <mxCell id="__dQNG1dzo80600j9WUh-2" style="shape=tableRow;horizontal=0;startSize=0;swimlaneHead=0;swimlaneBody=0;top=0;left=0;bottom=0;right=0;collapsible=0;dropTarget=0;fillColor=none;points=[[0,0.5],[1,0.5]];portConstraint=eastwest;strokeColor=inherit;fontSize=16;fontFamily=Helvetica;fontColor=default;html=1;movable=1;resizable=1;rotatable=1;deletable=1;editable=1;locked=0;connectable=1;" vertex="1" parent="__dQNG1dzo80600j9WUh-1">
          <mxGeometry y="30" width="460" height="60" as="geometry" />
        </mxCell>
        <mxCell id="__dQNG1dzo80600j9WUh-3" value="Nome" style="shape=partialRectangle;html=1;whiteSpace=wrap;connectable=1;fillColor=none;top=0;left=0;bottom=0;right=0;overflow=hidden;pointerEvents=1;strokeColor=inherit;fontSize=16;fontFamily=Helvetica;fontColor=default;startSize=30;verticalAlign=top;movable=1;resizable=1;rotatable=1;deletable=1;editable=1;locked=0;" vertex="1" parent="__dQNG1dzo80600j9WUh-2">
          <mxGeometry width="131" height="60" as="geometry">
            <mxRectangle width="131" height="60" as="alternateBounds" />
          </mxGeometry>
        </mxCell>
        <mxCell id="__dQNG1dzo80600j9WUh-4" value="Tela de Pagamentos - Dinheiro" style="shape=partialRectangle;html=1;whiteSpace=wrap;connectable=1;fillColor=none;top=0;left=0;bottom=0;right=0;align=left;spacingLeft=6;overflow=hidden;strokeColor=inherit;fontSize=16;fontFamily=Helvetica;fontColor=default;startSize=30;verticalAlign=top;movable=1;resizable=1;rotatable=1;deletable=1;editable=1;locked=0;" vertex="1" parent="__dQNG1dzo80600j9WUh-2">
          <mxGeometry x="131" width="329" height="60" as="geometry">
            <mxRectangle width="329" height="60" as="alternateBounds" />
          </mxGeometry>
        </mxCell>
        <mxCell id="__dQNG1dzo80600j9WUh-5" style="shape=tableRow;horizontal=0;startSize=0;swimlaneHead=0;swimlaneBody=0;top=0;left=0;bottom=0;right=0;collapsible=0;dropTarget=0;fillColor=none;points=[[0,0.5],[1,0.5]];portConstraint=eastwest;strokeColor=inherit;fontSize=16;fontFamily=Helvetica;fontColor=default;html=1;movable=1;resizable=1;rotatable=1;deletable=1;editable=1;locked=0;connectable=1;" vertex="1" parent="__dQNG1dzo80600j9WUh-1">
          <mxGeometry y="90" width="460" height="60" as="geometry" />
        </mxCell>
        <mxCell id="__dQNG1dzo80600j9WUh-6" value="Ator" style="shape=partialRectangle;html=1;whiteSpace=wrap;connectable=1;fillColor=none;top=0;left=0;bottom=0;right=0;overflow=hidden;pointerEvents=1;strokeColor=inherit;fontSize=16;fontFamily=Helvetica;fontColor=default;startSize=30;verticalAlign=top;movable=1;resizable=1;rotatable=1;deletable=1;editable=1;locked=0;" vertex="1" parent="__dQNG1dzo80600j9WUh-5">
          <mxGeometry width="131" height="60" as="geometry">
            <mxRectangle width="131" height="60" as="alternateBounds" />
          </mxGeometry>
        </mxCell>
        <mxCell id="__dQNG1dzo80600j9WUh-7" value="Usuário" style="shape=partialRectangle;html=1;whiteSpace=wrap;connectable=1;fillColor=none;top=0;left=0;bottom=0;right=0;align=left;spacingLeft=6;overflow=hidden;strokeColor=inherit;fontSize=16;fontFamily=Helvetica;fontColor=default;startSize=30;verticalAlign=top;movable=1;resizable=1;rotatable=1;deletable=1;editable=1;locked=0;" vertex="1" parent="__dQNG1dzo80600j9WUh-5">
          <mxGeometry x="131" width="329" height="60" as="geometry">
            <mxRectangle width="329" height="60" as="alternateBounds" />
          </mxGeometry>
        </mxCell>
        <mxCell id="__dQNG1dzo80600j9WUh-8" style="shape=tableRow;horizontal=0;startSize=0;swimlaneHead=0;swimlaneBody=0;top=0;left=0;bottom=0;right=0;collapsible=0;dropTarget=0;fillColor=none;points=[[0,0.5],[1,0.5]];portConstraint=eastwest;strokeColor=inherit;fontSize=16;fontFamily=Helvetica;fontColor=default;html=1;movable=1;resizable=1;rotatable=1;deletable=1;editable=1;locked=0;connectable=1;" vertex="1" parent="__dQNG1dzo80600j9WUh-1">
          <mxGeometry y="150" width="460" height="110" as="geometry" />
        </mxCell>
        <mxCell id="__dQNG1dzo80600j9WUh-9" value="Pré-condições" style="shape=partialRectangle;html=1;whiteSpace=wrap;connectable=1;fillColor=none;top=0;left=0;bottom=0;right=0;overflow=hidden;pointerEvents=1;strokeColor=inherit;fontSize=16;fontFamily=Helvetica;fontColor=default;startSize=30;verticalAlign=top;movable=1;resizable=1;rotatable=1;deletable=1;editable=1;locked=0;" vertex="1" parent="__dQNG1dzo80600j9WUh-8">
          <mxGeometry width="131" height="110" as="geometry">
            <mxRectangle width="131" height="110" as="alternateBounds" />
          </mxGeometry>
        </mxCell>
        <mxCell id="__dQNG1dzo80600j9WUh-10" value="Não pode conter valores negativos&amp;nbsp;" style="shape=partialRectangle;html=1;whiteSpace=wrap;connectable=1;fillColor=none;top=0;left=0;bottom=0;right=0;align=left;spacingLeft=6;overflow=hidden;strokeColor=inherit;fontSize=16;fontFamily=Helvetica;fontColor=default;startSize=30;verticalAlign=top;movable=1;resizable=1;rotatable=1;deletable=1;editable=1;locked=0;" vertex="1" parent="__dQNG1dzo80600j9WUh-8">
          <mxGeometry x="131" width="329" height="110" as="geometry">
            <mxRectangle width="329" height="110" as="alternateBounds" />
          </mxGeometry>
        </mxCell>
        <mxCell id="__dQNG1dzo80600j9WUh-11" value="" style="shape=tableRow;horizontal=0;startSize=0;swimlaneHead=0;swimlaneBody=0;top=0;left=0;bottom=0;right=0;collapsible=0;dropTarget=0;fillColor=none;points=[[0,0.5],[1,0.5]];portConstraint=eastwest;strokeColor=inherit;fontSize=16;fontFamily=Helvetica;fontColor=default;html=1;movable=1;resizable=1;rotatable=1;deletable=1;editable=1;locked=0;connectable=1;" vertex="1" parent="__dQNG1dzo80600j9WUh-1">
          <mxGeometry y="260" width="460" height="420" as="geometry" />
        </mxCell>
        <mxCell id="__dQNG1dzo80600j9WUh-12" value="Procedimentos" style="shape=partialRectangle;html=1;whiteSpace=wrap;connectable=1;fillColor=none;top=0;left=0;bottom=0;right=0;overflow=hidden;pointerEvents=1;strokeColor=inherit;fontSize=16;fontFamily=Helvetica;fontColor=default;startSize=30;verticalAlign=top;movable=1;resizable=1;rotatable=1;deletable=1;editable=1;locked=0;" vertex="1" parent="__dQNG1dzo80600j9WUh-11">
          <mxGeometry width="131" height="420" as="geometry">
            <mxRectangle width="131" height="420" as="alternateBounds" />
          </mxGeometry>
        </mxCell>
        <mxCell id="__dQNG1dzo80600j9WUh-13" value="1.Abra a aplicação&lt;br&gt;&lt;br&gt;&lt;table style=&quot;border-collapse:&lt;br/&gt; collapse;width:200pt&quot; width=&quot;267&quot; cellspacing=&quot;0&quot; cellpadding=&quot;0&quot; border=&quot;0&quot;&gt;&lt;tbody&gt;&lt;tr style=&quot;height:15.0pt&quot; height=&quot;20&quot;&gt;  &lt;td style=&quot;height:15.0pt;width:200pt&quot; width=&quot;267&quot; height=&quot;20&quot;&gt;2.Recebimento do valor do pedido&lt;br&gt;&lt;br&gt;&lt;table style=&quot;border-collapse:&lt;br/&gt; collapse;width:200pt&quot; width=&quot;267&quot; cellspacing=&quot;0&quot; cellpadding=&quot;0&quot; border=&quot;0&quot;&gt;&lt;tbody&gt;&lt;tr style=&quot;height:15.0pt&quot; height=&quot;20&quot;&gt;  &lt;td style=&quot;height:15.0pt;width:200pt&quot; width=&quot;267&quot; height=&quot;20&quot;&gt;3.Inserir&amp;nbsp; valor do campo &quot;Troco para R$&quot;&lt;br&gt;&lt;table style=&quot;border-collapse:&lt;br/&gt; collapse;width:200pt&quot; width=&quot;267&quot; cellspacing=&quot;0&quot; cellpadding=&quot;0&quot; border=&quot;0&quot;&gt;&lt;tbody&gt;&lt;tr style=&quot;height:15.0pt&quot; height=&quot;20&quot;&gt;&lt;td style=&quot;height:15.0pt;width:200pt&quot; width=&quot;267&quot; height=&quot;20&quot;&gt;&lt;br&gt;4. Verificar auto preenchimento do campo &quot;troco&quot;&lt;br&gt;&lt;br&gt;5. Verificar se os campos preenchidos estão impossibilitados de receber valor negativo.&lt;br&gt;&lt;br&gt;6. Clicar no botão &quot;Finalizar&quot;&lt;br&gt;&lt;br&gt;&lt;/td&gt;&lt;/tr&gt;&lt;/tbody&gt;&lt;/table&gt;&lt;/td&gt;&lt;/tr&gt;&lt;/tbody&gt;&lt;/table&gt;&lt;/td&gt;&lt;/tr&gt;&lt;/tbody&gt;&lt;/table&gt;" style="shape=partialRectangle;html=1;whiteSpace=wrap;connectable=1;fillColor=none;top=0;left=0;bottom=0;right=0;align=left;spacingLeft=6;overflow=hidden;strokeColor=inherit;fontSize=16;fontFamily=Helvetica;fontColor=default;startSize=30;verticalAlign=top;movable=1;resizable=1;rotatable=1;deletable=1;editable=1;locked=0;" vertex="1" parent="__dQNG1dzo80600j9WUh-11">
          <mxGeometry x="131" width="329" height="420" as="geometry">
            <mxRectangle width="329" height="420" as="alternateBounds" />
          </mxGeometry>
        </mxCell>
        <mxCell id="__dQNG1dzo80600j9WUh-14" value="" style="shape=tableRow;horizontal=0;startSize=0;swimlaneHead=0;swimlaneBody=0;top=0;left=0;bottom=0;right=0;collapsible=0;dropTarget=0;fillColor=none;points=[[0,0.5],[1,0.5]];portConstraint=eastwest;strokeColor=inherit;fontSize=16;fontFamily=Helvetica;fontColor=default;html=1;movable=1;resizable=1;rotatable=1;deletable=1;editable=1;locked=0;connectable=1;" vertex="1" parent="__dQNG1dzo80600j9WUh-1">
          <mxGeometry y="680" width="460" height="70" as="geometry" />
        </mxCell>
        <mxCell id="__dQNG1dzo80600j9WUh-15" value="Pós-condições" style="shape=partialRectangle;html=1;whiteSpace=wrap;connectable=1;fillColor=none;top=0;left=0;bottom=0;right=0;overflow=hidden;strokeColor=inherit;fontSize=16;fontFamily=Helvetica;fontColor=default;startSize=30;verticalAlign=top;movable=1;resizable=1;rotatable=1;deletable=1;editable=1;locked=0;" vertex="1" parent="__dQNG1dzo80600j9WUh-14">
          <mxGeometry width="131" height="70" as="geometry">
            <mxRectangle width="131" height="70" as="alternateBounds" />
          </mxGeometry>
        </mxCell>
        <mxCell id="__dQNG1dzo80600j9WUh-16" value="o pagamento deverá ser confirmado e não pode conter valores negativos." style="shape=partialRectangle;html=1;whiteSpace=wrap;connectable=1;fillColor=none;top=0;left=0;bottom=0;right=0;align=left;spacingLeft=6;overflow=hidden;strokeColor=inherit;fontSize=16;fontFamily=Helvetica;fontColor=default;startSize=30;verticalAlign=top;movable=1;resizable=1;rotatable=1;deletable=1;editable=1;locked=0;perimeterSpacing=1;strokeWidth=5;" vertex="1" parent="__dQNG1dzo80600j9WUh-14">
          <mxGeometry x="131" width="329" height="70" as="geometry">
            <mxRectangle width="329" height="70" as="alternateBounds" />
          </mxGeometry>
        </mxCell>
        <mxCell id="__dQNG1dzo80600j9WUh-18" value="Caso de teste" style="shape=table;startSize=30;container=1;collapsible=0;childLayout=tableLayout;fixedRows=1;rowLines=0;fontStyle=0;strokeColor=#666666;fontSize=16;fontFamily=Helvetica;fontColor=#333333;fillColor=#f5f5f5;html=1;movable=1;resizable=1;rotatable=1;deletable=1;editable=1;locked=0;connectable=1;perimeterSpacing=0;strokeWidth=1;" vertex="1" parent="1">
          <mxGeometry x="-2970" y="-810" width="460" height="750" as="geometry" />
        </mxCell>
        <mxCell id="__dQNG1dzo80600j9WUh-19" style="shape=tableRow;horizontal=0;startSize=0;swimlaneHead=0;swimlaneBody=0;top=0;left=0;bottom=0;right=0;collapsible=0;dropTarget=0;fillColor=none;points=[[0,0.5],[1,0.5]];portConstraint=eastwest;strokeColor=inherit;fontSize=16;fontFamily=Helvetica;fontColor=default;html=1;movable=1;resizable=1;rotatable=1;deletable=1;editable=1;locked=0;connectable=1;" vertex="1" parent="__dQNG1dzo80600j9WUh-18">
          <mxGeometry y="30" width="460" height="60" as="geometry" />
        </mxCell>
        <mxCell id="__dQNG1dzo80600j9WUh-20" value="Nome" style="shape=partialRectangle;html=1;whiteSpace=wrap;connectable=1;fillColor=none;top=0;left=0;bottom=0;right=0;overflow=hidden;pointerEvents=1;strokeColor=inherit;fontSize=16;fontFamily=Helvetica;fontColor=default;startSize=30;verticalAlign=top;movable=1;resizable=1;rotatable=1;deletable=1;editable=1;locked=0;" vertex="1" parent="__dQNG1dzo80600j9WUh-19">
          <mxGeometry width="131" height="60" as="geometry">
            <mxRectangle width="131" height="60" as="alternateBounds" />
          </mxGeometry>
        </mxCell>
        <mxCell id="__dQNG1dzo80600j9WUh-21" value="Tela de Pagamentos - Cartão" style="shape=partialRectangle;html=1;whiteSpace=wrap;connectable=1;fillColor=none;top=0;left=0;bottom=0;right=0;align=left;spacingLeft=6;overflow=hidden;strokeColor=inherit;fontSize=16;fontFamily=Helvetica;fontColor=default;startSize=30;verticalAlign=top;movable=1;resizable=1;rotatable=1;deletable=1;editable=1;locked=0;" vertex="1" parent="__dQNG1dzo80600j9WUh-19">
          <mxGeometry x="131" width="329" height="60" as="geometry">
            <mxRectangle width="329" height="60" as="alternateBounds" />
          </mxGeometry>
        </mxCell>
        <mxCell id="__dQNG1dzo80600j9WUh-22" style="shape=tableRow;horizontal=0;startSize=0;swimlaneHead=0;swimlaneBody=0;top=0;left=0;bottom=0;right=0;collapsible=0;dropTarget=0;fillColor=none;points=[[0,0.5],[1,0.5]];portConstraint=eastwest;strokeColor=inherit;fontSize=16;fontFamily=Helvetica;fontColor=default;html=1;movable=1;resizable=1;rotatable=1;deletable=1;editable=1;locked=0;connectable=1;" vertex="1" parent="__dQNG1dzo80600j9WUh-18">
          <mxGeometry y="90" width="460" height="60" as="geometry" />
        </mxCell>
        <mxCell id="__dQNG1dzo80600j9WUh-23" value="Ator" style="shape=partialRectangle;html=1;whiteSpace=wrap;connectable=1;fillColor=none;top=0;left=0;bottom=0;right=0;overflow=hidden;pointerEvents=1;strokeColor=inherit;fontSize=16;fontFamily=Helvetica;fontColor=default;startSize=30;verticalAlign=top;movable=1;resizable=1;rotatable=1;deletable=1;editable=1;locked=0;" vertex="1" parent="__dQNG1dzo80600j9WUh-22">
          <mxGeometry width="131" height="60" as="geometry">
            <mxRectangle width="131" height="60" as="alternateBounds" />
          </mxGeometry>
        </mxCell>
        <mxCell id="__dQNG1dzo80600j9WUh-24" value="Usuário" style="shape=partialRectangle;html=1;whiteSpace=wrap;connectable=1;fillColor=none;top=0;left=0;bottom=0;right=0;align=left;spacingLeft=6;overflow=hidden;strokeColor=inherit;fontSize=16;fontFamily=Helvetica;fontColor=default;startSize=30;verticalAlign=top;movable=1;resizable=1;rotatable=1;deletable=1;editable=1;locked=0;" vertex="1" parent="__dQNG1dzo80600j9WUh-22">
          <mxGeometry x="131" width="329" height="60" as="geometry">
            <mxRectangle width="329" height="60" as="alternateBounds" />
          </mxGeometry>
        </mxCell>
        <mxCell id="__dQNG1dzo80600j9WUh-25" style="shape=tableRow;horizontal=0;startSize=0;swimlaneHead=0;swimlaneBody=0;top=0;left=0;bottom=0;right=0;collapsible=0;dropTarget=0;fillColor=none;points=[[0,0.5],[1,0.5]];portConstraint=eastwest;strokeColor=inherit;fontSize=16;fontFamily=Helvetica;fontColor=default;html=1;movable=1;resizable=1;rotatable=1;deletable=1;editable=1;locked=0;connectable=1;" vertex="1" parent="__dQNG1dzo80600j9WUh-18">
          <mxGeometry y="150" width="460" height="110" as="geometry" />
        </mxCell>
        <mxCell id="__dQNG1dzo80600j9WUh-26" value="Pré-condições" style="shape=partialRectangle;html=1;whiteSpace=wrap;connectable=1;fillColor=none;top=0;left=0;bottom=0;right=0;overflow=hidden;pointerEvents=1;strokeColor=inherit;fontSize=16;fontFamily=Helvetica;fontColor=default;startSize=30;verticalAlign=top;movable=1;resizable=1;rotatable=1;deletable=1;editable=1;locked=0;" vertex="1" parent="__dQNG1dzo80600j9WUh-25">
          <mxGeometry width="131" height="110" as="geometry">
            <mxRectangle width="131" height="110" as="alternateBounds" />
          </mxGeometry>
        </mxCell>
        <mxCell id="__dQNG1dzo80600j9WUh-27" value="todos os campos podem ser preenchidos" style="shape=partialRectangle;html=1;whiteSpace=wrap;connectable=1;fillColor=none;top=0;left=0;bottom=0;right=0;align=left;spacingLeft=6;overflow=hidden;strokeColor=inherit;fontSize=16;fontFamily=Helvetica;fontColor=default;startSize=30;verticalAlign=top;movable=1;resizable=1;rotatable=1;deletable=1;editable=1;locked=0;" vertex="1" parent="__dQNG1dzo80600j9WUh-25">
          <mxGeometry x="131" width="329" height="110" as="geometry">
            <mxRectangle width="329" height="110" as="alternateBounds" />
          </mxGeometry>
        </mxCell>
        <mxCell id="__dQNG1dzo80600j9WUh-28" value="" style="shape=tableRow;horizontal=0;startSize=0;swimlaneHead=0;swimlaneBody=0;top=0;left=0;bottom=0;right=0;collapsible=0;dropTarget=0;fillColor=none;points=[[0,0.5],[1,0.5]];portConstraint=eastwest;strokeColor=inherit;fontSize=16;fontFamily=Helvetica;fontColor=default;html=1;movable=1;resizable=1;rotatable=1;deletable=1;editable=1;locked=0;connectable=1;" vertex="1" parent="__dQNG1dzo80600j9WUh-18">
          <mxGeometry y="260" width="460" height="420" as="geometry" />
        </mxCell>
        <mxCell id="__dQNG1dzo80600j9WUh-29" value="Procedimentos" style="shape=partialRectangle;html=1;whiteSpace=wrap;connectable=1;fillColor=none;top=0;left=0;bottom=0;right=0;overflow=hidden;pointerEvents=1;strokeColor=inherit;fontSize=16;fontFamily=Helvetica;fontColor=default;startSize=30;verticalAlign=top;movable=1;resizable=1;rotatable=1;deletable=1;editable=1;locked=0;" vertex="1" parent="__dQNG1dzo80600j9WUh-28">
          <mxGeometry width="131" height="420" as="geometry">
            <mxRectangle width="131" height="420" as="alternateBounds" />
          </mxGeometry>
        </mxCell>
        <mxCell id="__dQNG1dzo80600j9WUh-30" value="1.Abra a aplicação&lt;br&gt;&lt;br&gt;&lt;table style=&quot;border-collapse:&lt;br/&gt; collapse;width:200pt&quot; width=&quot;267&quot; cellspacing=&quot;0&quot; cellpadding=&quot;0&quot; border=&quot;0&quot;&gt;&lt;tbody&gt;&lt;tr style=&quot;height:15.0pt&quot; height=&quot;20&quot;&gt;  &lt;td style=&quot;height:15.0pt;width:200pt&quot; width=&quot;267&quot; height=&quot;20&quot;&gt;2.preencha o campo &quot;bandeira&quot;&lt;br&gt;&lt;br&gt;&lt;table style=&quot;border-collapse:&lt;br/&gt; collapse;width:200pt&quot; width=&quot;267&quot; cellspacing=&quot;0&quot; cellpadding=&quot;0&quot; border=&quot;0&quot;&gt;&lt;tbody&gt;&lt;tr style=&quot;height:15.0pt&quot; height=&quot;20&quot;&gt;  &lt;td style=&quot;height:15.0pt;width:200pt&quot; width=&quot;267&quot; height=&quot;20&quot;&gt;3.preencha o campo &quot;Numero do cartão&quot;&lt;br&gt;&lt;br&gt;4.preencha o campo &quot;Nome igual ao do cartão&quot;&lt;br&gt;&lt;br&gt;5.preencha o campo &quot;Data de validade&quot;&lt;br&gt;&lt;br&gt;6.preencha o campo &quot;Cod segurança&quot;&lt;br&gt;&lt;br&gt;7.clicar no campo &quot;Finalizar&quot;&lt;br&gt;&lt;/td&gt;&lt;/tr&gt;&lt;/tbody&gt;&lt;/table&gt;&lt;/td&gt;&lt;/tr&gt;&lt;/tbody&gt;&lt;/table&gt;" style="shape=partialRectangle;html=1;whiteSpace=wrap;connectable=1;fillColor=none;top=0;left=0;bottom=0;right=0;align=left;spacingLeft=6;overflow=hidden;strokeColor=inherit;fontSize=16;fontFamily=Helvetica;fontColor=default;startSize=30;verticalAlign=top;movable=1;resizable=1;rotatable=1;deletable=1;editable=1;locked=0;" vertex="1" parent="__dQNG1dzo80600j9WUh-28">
          <mxGeometry x="131" width="329" height="420" as="geometry">
            <mxRectangle width="329" height="420" as="alternateBounds" />
          </mxGeometry>
        </mxCell>
        <mxCell id="__dQNG1dzo80600j9WUh-31" value="" style="shape=tableRow;horizontal=0;startSize=0;swimlaneHead=0;swimlaneBody=0;top=0;left=0;bottom=0;right=0;collapsible=0;dropTarget=0;fillColor=none;points=[[0,0.5],[1,0.5]];portConstraint=eastwest;strokeColor=inherit;fontSize=16;fontFamily=Helvetica;fontColor=default;html=1;movable=1;resizable=1;rotatable=1;deletable=1;editable=1;locked=0;connectable=1;" vertex="1" parent="__dQNG1dzo80600j9WUh-18">
          <mxGeometry y="680" width="460" height="70" as="geometry" />
        </mxCell>
        <mxCell id="__dQNG1dzo80600j9WUh-32" value="Pós-condições" style="shape=partialRectangle;html=1;whiteSpace=wrap;connectable=1;fillColor=none;top=0;left=0;bottom=0;right=0;overflow=hidden;strokeColor=inherit;fontSize=16;fontFamily=Helvetica;fontColor=default;startSize=30;verticalAlign=top;movable=1;resizable=1;rotatable=1;deletable=1;editable=1;locked=0;" vertex="1" parent="__dQNG1dzo80600j9WUh-31">
          <mxGeometry width="131" height="70" as="geometry">
            <mxRectangle width="131" height="70" as="alternateBounds" />
          </mxGeometry>
        </mxCell>
        <mxCell id="__dQNG1dzo80600j9WUh-33" value="Os dados, se aceitáveis, devem ser preenchidos e gerar o pagamento.&amp;nbsp;" style="shape=partialRectangle;html=1;whiteSpace=wrap;connectable=1;fillColor=none;top=0;left=0;bottom=0;right=0;align=left;spacingLeft=6;overflow=hidden;strokeColor=inherit;fontSize=16;fontFamily=Helvetica;fontColor=default;startSize=30;verticalAlign=top;movable=1;resizable=1;rotatable=1;deletable=1;editable=1;locked=0;perimeterSpacing=1;strokeWidth=5;" vertex="1" parent="__dQNG1dzo80600j9WUh-31">
          <mxGeometry x="131" width="329" height="70" as="geometry">
            <mxRectangle width="329" height="70" as="alternateBounds" />
          </mxGeometry>
        </mxCell>
      </root>
    </mxGraphModel>
  </diagram>
</mxfile>
